<?xml version="1.0" encoding="UTF-8" standalone="no"?>
<!-- Generator: Adobe Illustrator 18.0.0, SVG Export Plug-In . SVG Version: 6.00 Build 0)  -->

<svg
   xmlns:dc="http://purl.org/dc/elements/1.1/"
   xmlns:cc="http://creativecommons.org/ns#"
   xmlns:rdf="http://www.w3.org/1999/02/22-rdf-syntax-ns#"
   xmlns:svg="http://www.w3.org/2000/svg"
   xmlns="http://www.w3.org/2000/svg"
   xmlns:sodipodi="http://sodipodi.sourceforge.net/DTD/sodipodi-0.dtd"
   xmlns:inkscape="http://www.inkscape.org/namespaces/inkscape"
   version="1.1"
   id="Capa_1"
   x="0px"
   y="0px"
   viewBox="0 0 455.73 455.73"
   style="enable-background:new 0 0 455.73 455.73;"
   xml:space="preserve"
   sodipodi:docname="facebook_icon.svg"
   inkscape:version="0.92.4 (5da689c313, 2019-01-14)"
   inkscape:export-filename="C:\Users\brett\Documents\GitHub\flask-cms-demo\app\static\images\facebook_icon.png"
   inkscape:export-xdpi="42.130207"
   inkscape:export-ydpi="42.130207"><metadata
   id="metadata3789"><rdf:RDF><cc:Work
       rdf:about=""><dc:format>image/svg+xml</dc:format><dc:type
         rdf:resource="http://purl.org/dc/dcmitype/StillImage" /></cc:Work></rdf:RDF></metadata><defs
   id="defs3787" /><sodipodi:namedview
   pagecolor="#ffffff"
   bordercolor="#666666"
   borderopacity="1"
   objecttolerance="10"
   gridtolerance="10"
   guidetolerance="10"
   inkscape:pageopacity="0"
   inkscape:pageshadow="2"
   inkscape:window-width="1920"
   inkscape:window-height="1017"
   id="namedview3785"
   showgrid="false"
   inkscape:zoom="1.8607508"
   inkscape:cx="140.53467"
   inkscape:cy="227.86501"
   inkscape:window-x="-8"
   inkscape:window-y="-8"
   inkscape:window-maximized="1"
   inkscape:current-layer="Capa_1" />
<path
   style="fill:#3A559F;"
   d="M0,0v455.73h242.704V279.691h-59.33v-71.864h59.33v-60.353c0-43.893,35.582-79.475,79.475-79.475  h62.025v64.622h-44.382c-13.947,0-25.254,11.307-25.254,25.254v49.953h68.521l-9.47,71.864h-59.051V455.73H455.73V0H0z"
   id="path3752" />
<g
   id="g3754">
</g>
<g
   id="g3756">
</g>
<g
   id="g3758">
</g>
<g
   id="g3760">
</g>
<g
   id="g3762">
</g>
<g
   id="g3764">
</g>
<g
   id="g3766">
</g>
<g
   id="g3768">
</g>
<g
   id="g3770">
</g>
<g
   id="g3772">
</g>
<g
   id="g3774">
</g>
<g
   id="g3776">
</g>
<g
   id="g3778">
</g>
<g
   id="g3780">
</g>
<g
   id="g3782">
</g>
<path
   style="fill:#dddddf;stroke-width:0.53741747;fill-opacity:0.94117647"
   d="M 0,227.91875 V 0.32245048 h 227.86501 227.865 V 227.91875 455.51504 h -70.40169 -70.40169 v -87.86775 -87.86776 h 29.55797 c 26.0345,0 29.55796,-0.097 29.55796,-0.8135 0,-0.44742 2.05562,-16.37016 4.56804,-35.38387 2.51243,-19.01371 4.56805,-34.85076 4.56805,-35.19347 0,-0.46598 -8.60524,-0.6231 -34.12601,-0.6231 h -34.12601 v -26.81426 c 0,-30.26696 0.0214,-30.45442 4.21706,-36.94592 2.54978,-3.94501 5.68634,-6.58195 10.59242,-8.90516 l 3.73143,-1.76698 25.39713,-0.1543 25.39713,-0.1543 -0.13851,-32.62817 -0.13851,-32.628158 -29.02054,-0.154496 c -30.71188,-0.163504 -42.11698,0.294252 -49.75911,1.99714 -21.31823,4.750313 -39.86237,17.976265 -51.05238,36.411294 -4.8911,8.05785 -8.121,16.32759 -10.25893,26.26667 -1.09294,5.08098 -1.16023,7.06743 -1.36887,40.41015 l -0.21943,35.06649 h -29.52308 -29.52308 v 36.00697 36.00697 h 29.55796 29.55796 v 87.86776 87.86775 H 121.18764 0 Z"
   id="path3791"
   inkscape:connector-curvature="0" /><path
   style="fill:#fffff0;fill-opacity:0;stroke-width:0.53741747"
   d="M 0.26870854,227.91874 V 0.32244128 H 227.86501 455.46131 V 227.91874 455.51504 h -70.13298 -70.13298 v -87.86775 -87.86776 h 29.30612 c 22.96169,0 29.35682,-0.14543 29.54035,-0.67177 0.4537,-1.3012 9.28192,-70.54124 9.04486,-70.93911 -0.13209,-0.22168 -15.47731,-0.40306 -34.10049,-0.40306 h -33.86033 l 0.20546,-27.81136 c 0.15404,-20.85005 0.37997,-28.34942 0.90259,-29.96102 1.95257,-6.02096 7.52184,-11.98623 14.00913,-15.0052 2.8166,-1.31076 3.4009,-1.37578 12.40742,-1.38078 5.19838,-0.003 16.7502,-0.16526 25.67069,-0.36082 l 16.21907,-0.35557 -0.11294,-26.91837 c -0.0621,-14.805102 -0.20265,-29.518125 -0.3123,-32.695606 l -0.19935,-5.777238 -29.92644,0.0022 c -33.12025,0.0027 -42.31527,0.445336 -50.34832,2.425241 -26.58383,6.552129 -47.64403,25.521537 -56.67182,51.045613 -3.7622,10.63678 -3.86001,11.41827 -4.33834,34.66342 -0.24026,11.6754 -0.45648,28.18083 -0.48049,36.67875 l -0.0436,15.45079 H 212.54866 182.9907 v 36.00697 36.00697 h 29.55796 29.55796 v 87.86776 87.86775 H 121.18764 0.26870854 Z"
   id="path868"
   inkscape:connector-curvature="0" /></svg>